<svg width="367" height="241" viewBox="0 0 367 241" fill="none" xmlns="http://www.w3.org/2000/svg">
<g clip-path="url(#clip0_119_107)">
<path d="M356.728 137.197L290.275 193.731L275.735 206.099L235.049 205.851L200.325 205.64L197.441 205.623L190.395 197.354L162.379 164.482L148.316 147.979L144.087 143.019L141.028 139.429L134.211 131.43L123.175 118.481L134.353 108.972L145.028 99.8896L152.702 93.3621L249.318 11.1685L356.728 137.197Z" fill="#F1DDC9"/>
<path d="M158.477 32.6677H31.1182V124.654H158.477V32.6677Z" fill="#3F3D56"/>
<path d="M305.726 222.731H185.745V223.372H305.726V222.731Z" fill="#3F3D56"/>
<path d="M363.767 205.744H267.734C267.734 205.744 265.787 177.219 277.305 176.895C288.822 176.571 287.524 189.537 301.962 171.709C316.399 153.881 333.919 154.853 336.19 165.388C338.461 175.923 331.81 184.35 343.977 181.757C356.143 179.164 373.663 185.971 363.767 205.744Z" fill="#D84727"/>
<path d="M314.13 205.75L313.806 205.737C314.562 186.957 318.498 174.89 321.668 168.075C325.109 160.675 328.425 157.679 328.458 157.649L328.674 157.892C328.641 157.921 325.364 160.887 321.95 168.237C318.798 175.024 314.883 187.041 314.13 205.75Z" fill="#F2F2F2"/>
<path d="M348.887 205.789L348.575 205.698C352.326 192.838 361.157 184.717 361.246 184.637L361.464 184.877C361.376 184.957 352.61 193.019 348.887 205.789Z" fill="#F2F2F2"/>
<path d="M282.859 205.766L282.538 205.721C283.81 196.553 281.512 189.44 279.36 185.087C277.029 180.374 274.37 177.8 274.344 177.774L274.568 177.54C274.595 177.566 277.295 180.18 279.651 184.943C281.823 189.337 284.143 196.516 282.859 205.766Z" fill="#F2F2F2"/>
<path d="M367 205.744H13.7949V206.385H367V205.744Z" fill="#3F3D56"/>
<path d="M262.877 12.6324H232.498V50.341H262.877V12.6324Z" fill="#2F2E41"/>
<path d="M207.413 188.529L203.271 203.704L210.175 208.763L212.016 207.383L215.238 191.748L207.413 188.529Z" fill="#F4C782"/>
<path d="M259.425 187.149L258.044 205.544H266.789V188.529L259.425 187.149Z" fill="#F4C782"/>
<path d="M231.808 70.8048V81.8413L248.838 84.6006L263.567 78.6224L260.805 71.7244L231.808 70.8048Z" fill="#F4C782"/>
<path d="M245.616 80.002L230.887 77.2428L227.205 107.134L218 144.382C218 144.382 204.191 176.113 206.032 183.471L206.953 185.77L206.032 189.909L215.238 193.588L218.92 187.609C218.92 187.609 221.682 191.748 226.285 183.011C230.887 174.273 250.219 120.01 250.219 120.01L253.441 129.207C252.608 132.044 252.45 135.036 252.981 137.944C253.901 142.543 254.822 156.799 254.822 156.799C254.822 156.799 249.759 181.631 256.663 183.471L258.044 188.989L267.71 189.909L269.551 184.39C269.551 184.39 278.757 181.171 276.455 165.076C274.154 148.981 273.233 96.0971 273.233 96.0971L264.166 73.7597L245.616 80.002Z" fill="#2F2E41"/>
<path d="M206.032 202.785C206.032 202.785 203.731 200.945 202.81 201.405C201.89 201.865 192.224 214.281 192.224 214.281C192.224 214.281 182.098 222.099 189.462 223.019C196.827 223.938 217.079 213.821 217.079 211.522C217.079 209.223 212.824 203.464 212.824 203.464C212.824 203.464 209.715 206.004 206.032 202.785Z" fill="#2F2E41"/>
<path d="M257.123 201.405C257.123 201.405 265.409 200.891 266.789 202.298C268.17 203.704 267.71 210.602 267.71 210.602C267.71 210.602 268.63 223.019 261.266 223.019C253.902 223.019 255.743 214.741 255.743 214.741L257.123 201.405Z" fill="#2F2E41"/>
<path d="M248.838 30.337C255.193 30.337 260.345 25.1899 260.345 18.8405C260.345 12.4912 255.193 7.34402 248.838 7.34402C242.483 7.34402 237.331 12.4912 237.331 18.8405C237.331 25.1899 242.483 30.337 248.838 30.337Z" fill="#F4C782"/>
<path d="M241.243 25.9684C241.243 25.9684 247.687 33.786 234.799 39.7642C221.912 45.7424 244.005 70.5748 244.005 70.5748C244.005 70.5748 269.781 60.9178 267.479 42.0635C267.479 42.0635 251.83 39.3043 255.512 26.4282L241.243 25.9684Z" fill="#F4C782"/>
<path d="M234.339 39.3043C234.339 39.3043 223.753 37.9247 223.292 46.6621C222.832 55.3994 223.292 76.553 223.292 76.553C223.292 76.553 218.69 94.9474 220.991 111.043C220.991 111.043 218.229 129.897 225.594 128.977C232.958 128.057 227.435 109.663 227.435 109.663L230.657 79.772L229.276 57.6987L235.26 44.3628L234.339 39.3043Z" fill="#F4C782"/>
<path d="M264.807 41.3359C264.807 41.3359 274.844 41.1438 275.305 48.5015C275.765 55.8593 272.083 78.3925 272.083 78.3925L266.559 81.1516L261.496 65.5164L264.807 41.3359Z" fill="#F4C782"/>
<path d="M267.71 79.0822L266.789 81.3816L269.551 88.2795C269.551 88.2795 258.504 97.0168 259.425 98.8563C260.345 100.696 265.408 96.557 265.408 96.557L272.773 100.236C272.773 100.236 278.756 93.7978 275.995 87.8196C273.233 81.8414 272.166 77.871 272.166 77.871C272.166 77.871 268.17 77.7027 267.71 79.0822Z" fill="#F4C782"/>
<path d="M232.268 37.6948L230.887 52.8702C230.887 52.8702 224.443 59.3083 231.807 68.0456L230.887 74.9435C230.887 74.9435 247.917 74.0238 251.139 74.9435C254.361 75.8632 264.312 74.203 264.312 74.203L264.487 68.9653C264.487 68.9653 269.09 62.5273 267.709 52.8702C266.328 43.2132 267.709 39.9941 267.709 39.9941L264.487 39.5343C264.487 39.5343 262.416 53.56 248.147 54.9396C248.147 54.9396 230.427 56.5491 235.49 37.6948H232.268Z" fill="#D84727"/>
<path d="M249.989 0.216185C249.989 0.216185 238.021 -0.52502 235.26 6.90999C232.498 14.345 227.665 18.2484 227.665 18.2484C227.665 18.2484 220.052 23.5355 223.859 32.9738C223.859 32.9738 212.016 40.9252 219.84 47.9884C219.84 47.9884 219.38 55.0517 223.983 59.8844C223.983 59.8844 227.665 61.7432 226.284 62.8584C224.903 63.9737 235.49 63.2302 234.569 53.1929C233.649 43.1557 239.863 36.0853 239.863 36.0853C239.863 36.0853 233.879 23.0716 236.641 18.6106C238.317 15.9021 239.037 13.8824 240.429 12.7134C241.204 12.078 241.923 11.377 242.578 10.6183C243.197 9.83637 244.038 9.25928 244.991 8.96246C245.943 8.66564 246.963 8.66291 247.917 8.95462C252.06 10.0699 252.981 13.4156 252.981 13.4156C252.981 13.4156 255.972 21.4083 261.035 25.1258C266.099 28.8433 257.123 35.3489 257.123 35.3489C257.123 35.3489 258.683 43.0083 262.736 47.543C266.789 52.0777 261.568 56.0304 261.266 56.5387C260.575 57.6987 257.818 65.0241 269.208 65.0565C269.208 65.0565 271.852 59.5127 275.534 56.1669C279.217 52.8212 276.455 43.1557 276.455 43.1557C276.455 43.1557 281.978 39.8099 275.995 31.6314C275.995 31.6314 277.836 24.1964 272.773 19.3636C272.773 19.3636 265.638 -2.38607 249.989 0.216185Z" fill="#2F2E41"/>
<path d="M236.41 20.4501C237.046 20.4501 237.561 19.6265 237.561 18.6106C237.561 17.5947 237.046 16.7712 236.41 16.7712C235.775 16.7712 235.26 17.5947 235.26 18.6106C235.26 19.6265 235.775 20.4501 236.41 20.4501Z" fill="#FFB8B8"/>
<path d="M190.237 240.679H0.32089C0.32089 240.679 -3.52876 184.27 19.2483 183.628C42.0254 182.987 39.459 208.628 68.0106 173.372C96.5621 138.116 131.209 140.039 135.7 160.872C140.192 181.705 127.039 198.372 151.099 193.244C175.159 188.116 209.806 201.577 190.237 240.679Z" fill="#D84727"/>
<path d="M92.0726 240.692L91.4316 240.667C92.9265 203.527 100.712 179.664 106.98 166.186C113.785 151.551 120.343 145.627 120.409 145.569L120.835 146.048C120.771 146.105 114.289 151.971 107.538 166.506C101.305 179.928 93.562 203.692 92.0726 240.692Z" fill="#F2F2F2"/>
<path d="M160.808 240.769L160.192 240.59C167.609 215.156 185.074 199.098 185.25 198.939L185.681 199.413C185.507 199.571 168.172 215.516 160.808 240.769Z" fill="#F2F2F2"/>
<path d="M30.2331 240.724L29.5974 240.635C32.1137 222.504 27.5684 208.436 23.3121 199.828C18.7035 190.508 13.4452 185.417 13.3926 185.367L13.8365 184.904C13.8899 184.955 19.2295 190.124 23.8873 199.544C28.1834 208.233 32.7718 222.431 30.2331 240.724Z" fill="#F2F2F2"/>
<path d="M268.513 240.359H0V241H268.513V240.359Z" fill="#3F3D56"/>
<path d="M181.254 124.975H30.7969V5.74469H181.254V124.975ZM31.4385 124.334H180.612V6.38571H31.4385V124.334Z" fill="#3F3D56"/>
<path d="M43.9498 60.2316C46.9617 60.2316 49.4034 57.7921 49.4034 54.7829C49.4034 51.7737 46.9617 49.3342 43.9498 49.3342C40.9378 49.3342 38.4961 51.7737 38.4961 54.7829C38.4961 57.7921 40.9378 60.2316 43.9498 60.2316Z" fill="#D84727"/>
<path d="M59.3492 60.2316C62.3612 60.2316 64.8029 57.7921 64.8029 54.7829C64.8029 51.7737 62.3612 49.3342 59.3492 49.3342C56.3372 49.3342 53.8955 51.7737 53.8955 54.7829C53.8955 57.7921 56.3372 60.2316 59.3492 60.2316Z" fill="#D0CDE1"/>
<path opacity="0.5" d="M74.7476 60.2316C77.7596 60.2316 80.2013 57.7921 80.2013 54.7829C80.2013 51.7737 77.7596 49.3342 74.7476 49.3342C71.7356 49.3342 69.2939 51.7737 69.2939 54.7829C69.2939 57.7921 71.7356 60.2316 74.7476 60.2316Z" fill="#D84727"/>
<path d="M90.1461 60.2316C93.158 60.2316 95.5997 57.7921 95.5997 54.7829C95.5997 51.7737 93.158 49.3342 90.1461 49.3342C87.1341 49.3342 84.6924 51.7737 84.6924 54.7829C84.6924 57.7921 87.1341 60.2316 90.1461 60.2316Z" fill="#F2F2F2"/>
<path d="M150.778 52.2188H105.865V57.347H150.778V52.2188Z" fill="#F2F2F2"/>
<path d="M92.3918 105.744C100.542 105.744 107.149 99.1433 107.149 91.0007C107.149 82.8581 100.542 76.2572 92.3918 76.2572C84.2417 76.2572 77.6348 82.8581 77.6348 91.0007C77.6348 99.1433 84.2417 105.744 92.3918 105.744Z" fill="#F2F2F2"/>
<path d="M92.4532 95.4393L85.0682 88.0612C84.8276 87.8207 84.6924 87.4946 84.6924 87.1546C84.6924 86.8145 84.8276 86.4884 85.0683 86.248C85.3089 86.0075 85.6353 85.8724 85.9757 85.8724C86.316 85.8724 86.6425 86.0075 86.8831 86.248L92.3304 91.6903L109.713 71.8863C109.824 71.7597 109.959 71.6563 110.11 71.5818C110.261 71.5073 110.426 71.4633 110.594 71.4523C110.762 71.4413 110.93 71.4635 111.09 71.5176C111.25 71.5717 111.397 71.6567 111.524 71.7677C111.65 71.8787 111.754 72.0135 111.828 72.1645C111.903 72.3155 111.947 72.4797 111.958 72.6477C111.969 72.8157 111.947 72.9842 111.893 73.1436C111.839 73.3031 111.753 73.4503 111.642 73.5768L92.4532 95.4393Z" fill="#D84727"/>
</g>
<defs>
<clipPath id="clip0_119_107">
<rect width="367" height="241" fill="white"/>
</clipPath>
</defs>
</svg>
