<svg width="29" height="34" viewBox="0 0 29 34" fill="none" xmlns="http://www.w3.org/2000/svg">
<path d="M10.6481 7.75038L12.8371 5.5637V12.7939C12.8371 13.7108 13.5786 14.4515 14.4965 14.4515C15.4145 14.4515 16.1559 13.7108 16.1559 12.7939V5.59896L18.3449 7.78565C18.6626 8.10307 19.0863 8.27941 19.51 8.27941C19.9337 8.27941 20.3573 8.10307 20.6751 7.78565C21.3106 7.1508 21.3106 6.09273 20.6751 5.45789L15.6616 0.449681C15.0614 -0.149894 13.9669 -0.149894 13.3314 0.449681L8.31794 5.45789C7.68243 6.09273 7.68243 7.1508 8.31794 7.78565C8.98876 8.42049 10.0126 8.42049 10.6481 7.75038Z" fill="#D84727"/>
<path d="M28.3368 17.8022C27.8778 17.3084 22.7231 11.8064 22.7231 11.8064C22.0876 11.1363 21.0637 11.1011 20.3929 11.7359C19.7221 12.3707 19.6868 13.3935 20.3223 14.0637L23.3233 17.2379H5.67024L8.67126 14.0637C9.30677 13.3935 9.27147 12.3707 8.60065 11.7359C7.92983 11.1363 6.90596 11.1363 6.27045 11.8064C6.27045 11.8064 1.04514 17.379 0.65677 17.8022C0.268403 18.1901 -0.155271 19.0013 0.0565659 19.742L3.37534 32.0156C3.62249 32.8621 4.39922 33.4617 5.28187 33.4617H23.7117C24.5943 33.4617 25.3711 32.8621 25.6182 32.0156L28.937 19.742C29.1488 19.0013 28.7958 18.2959 28.3368 17.8022ZM9.83637 28.2418C9.83637 28.8414 9.34208 29.3352 8.74188 29.3352C8.14167 29.3352 7.64739 28.8414 7.64739 28.2418V22.493C7.64739 21.8934 8.14167 21.3996 8.74188 21.3996C9.34208 21.3996 9.83637 21.8934 9.83637 22.493V28.2418ZM15.5913 28.2418C15.5913 28.8414 15.097 29.3352 14.4968 29.3352C13.8966 29.3352 13.4023 28.8414 13.4023 28.2418V22.493C13.4023 21.8934 13.8966 21.3996 14.4968 21.3996C15.097 21.3996 15.5913 21.8934 15.5913 22.493V28.2418ZM21.3462 28.2418C21.3462 28.8414 20.8519 29.3352 20.2517 29.3352C19.6515 29.3352 19.1572 28.8414 19.1572 28.2418V22.493C19.1572 21.8934 19.6515 21.3996 20.2517 21.3996C20.8519 21.3996 21.3462 21.8934 21.3462 22.493V28.2418Z" fill="#D84727"/>
</svg>
