<svg width="29" height="34" viewBox="0 0 29 34" fill="none" xmlns="http://www.w3.org/2000/svg">
<path d="M10.2943 7.39658L10.2942 7.39645L10.2849 7.40625C9.85134 7.86338 9.14779 7.87828 8.66612 7.42712C8.23083 6.98701 8.23239 6.24953 8.67082 5.81157L13.6787 0.808896C14.1281 0.390206 14.9096 0.40557 15.3078 0.803359L20.3212 5.81157C20.7612 6.25111 20.7612 6.99231 20.3212 7.43185C20.0938 7.65906 19.7959 7.77935 19.5095 7.77935C19.2231 7.77935 18.9252 7.65906 18.6978 7.43185L16.5088 5.24516L15.6554 4.39269V5.5989V12.7938C15.6554 13.4342 15.1383 13.9514 14.496 13.9514C13.8537 13.9514 13.3366 13.4342 13.3366 12.7938V5.56363V4.35742L12.4833 5.2099L10.2943 7.39658Z" stroke="#999999"/>
<path d="M20.6856 13.7201L20.6851 13.7195C20.2427 13.253 20.2633 12.5468 20.7366 12.099C21.2039 11.6567 21.9117 11.6774 22.3603 12.1504L22.362 12.1522L22.373 12.164L22.4162 12.2101L22.5806 12.3856L23.1708 13.0156L24.9929 14.9608C26.3395 16.3987 27.7419 17.8965 27.9706 18.1425C28.3736 18.5761 28.599 19.1054 28.4563 19.6044L28.4562 19.6044L28.4543 19.6114L25.1369 31.8799C24.9488 32.5171 24.364 32.9616 23.7117 32.9616H5.28187C4.62954 32.9616 4.04478 32.5171 3.85661 31.8799L0.539232 19.6114L0.539283 19.6114L0.53729 19.6044C0.469103 19.366 0.497154 19.091 0.600188 18.8141C0.703495 18.5366 0.867602 18.2982 1.01014 18.1558L1.01782 18.1481L1.02517 18.1401C1.21703 17.9311 2.61749 16.4353 3.97411 14.9874C4.65151 14.2644 5.31678 13.5546 5.8127 13.0256L6.40992 12.3886L6.57641 12.211L6.62018 12.1643L6.63139 12.1524L6.63413 12.1495C7.06925 11.6917 7.77917 11.677 8.26212 12.1039C8.73036 12.552 8.74924 13.2547 8.30847 13.7195L8.30794 13.7201L5.30692 16.8943L4.50944 17.7378H5.67024H23.3233H24.4841L23.6866 16.8943L20.6856 13.7201ZM8.74188 29.8351C9.61773 29.8351 10.3364 29.1179 10.3364 28.2417V22.4929C10.3364 21.6167 9.61773 20.8995 8.74188 20.8995C7.86602 20.8995 7.14739 21.6167 7.14739 22.4929V28.2417C7.14739 29.1179 7.86602 29.8351 8.74188 29.8351ZM14.4968 29.8351C15.3726 29.8351 16.0913 29.1179 16.0913 28.2417V22.4929C16.0913 21.6167 15.3726 20.8995 14.4968 20.8995C13.6209 20.8995 12.9023 21.6167 12.9023 22.4929V28.2417C12.9023 29.1179 13.6209 29.8351 14.4968 29.8351ZM20.2517 29.8351C21.1275 29.8351 21.8462 29.1179 21.8462 28.2417V22.4929C21.8462 21.6167 21.1275 20.8995 20.2517 20.8995C19.3758 20.8995 18.6572 21.6167 18.6572 22.4929V28.2417C18.6572 29.1179 19.3758 29.8351 20.2517 29.8351Z" stroke="#999999"/>
</svg>
