<svg width="48" height="48" viewBox="0 0 48 48" fill="none" xmlns="http://www.w3.org/2000/svg">
<path fill-rule="evenodd" clip-rule="evenodd" d="M14.0134 11.88V15.0134H9V11.88C9 10.8417 9.84172 10 10.88 10H12.1334C13.1717 10 14.0134 10.8417 14.0134 11.88ZM37.2003 10H18.4001C17.3618 10 16.52 10.8417 16.52 11.88V36.947C16.52 37.9853 17.3618 38.827 18.4001 38.827H37.2003C38.2386 38.827 39.0803 37.9853 39.0803 36.947V11.88C39.0803 10.8417 38.2386 10 37.2003 10ZM25.1099 29.87L22.6032 32.3767C22.3585 32.6213 21.9618 32.6213 21.7171 32.3767L20.4638 31.1233C20.2263 30.8774 20.2297 30.4866 20.4714 30.2448C20.7131 30.0031 21.104 29.9997 21.3499 30.2372L22.1602 31.0475L24.2238 28.9838C24.4697 28.7464 24.8606 28.7498 25.1023 28.9915C25.344 29.2332 25.3474 29.6241 25.1099 29.87ZM22.6032 26.1099L25.1099 23.6032C25.3474 23.3573 25.344 22.9665 25.1023 22.7247C24.8606 22.483 24.4697 22.4796 24.2238 22.7171L22.1602 24.7807L21.3499 23.9705C21.104 23.733 20.7131 23.7364 20.4714 23.9781C20.2297 24.2198 20.2263 24.6107 20.4638 24.8566L21.7171 26.1099C21.9618 26.3546 22.3585 26.3546 22.6032 26.1099ZM25.1099 17.3365L22.6032 19.8432C22.3585 20.0878 21.9618 20.0878 21.7171 19.8432L20.4638 18.5898C20.2263 18.3439 20.2297 17.9531 20.4714 17.7113C20.7131 17.4696 21.104 17.4662 21.3499 17.7037L22.1602 18.514L24.2238 16.4503C24.3812 16.2874 24.6142 16.2221 24.8333 16.2795C25.0524 16.3368 25.2235 16.5079 25.2808 16.727C25.3382 16.9461 25.2729 17.1791 25.1099 17.3365ZM27.1737 31.3069H34.6938C35.0399 31.3069 35.3205 31.0264 35.3205 30.6803C35.3205 30.3342 35.0399 30.0536 34.6938 30.0536H27.1737C26.8276 30.0536 26.547 30.3342 26.547 30.6803C26.547 31.0264 26.8276 31.3069 27.1737 31.3069ZM34.6938 25.0402H27.1737C26.8276 25.0402 26.547 24.7596 26.547 24.4135C26.547 24.0674 26.8276 23.7868 27.1737 23.7868H34.6938C35.0399 23.7868 35.3205 24.0674 35.3205 24.4135C35.3205 24.7596 35.0399 25.0402 34.6938 25.0402ZM27.1737 18.7734H34.6938C35.0399 18.7734 35.3205 18.4929 35.3205 18.1468C35.3205 17.8007 35.0399 17.5201 34.6938 17.5201H27.1737C26.8276 17.5201 26.547 17.8007 26.547 18.1468C26.547 18.4929 26.8276 18.7734 27.1737 18.7734ZM14.0134 16.2667H9V36.947C9 37.9853 9.84172 38.827 10.88 38.827H12.1334C13.1717 38.827 14.0134 37.9853 14.0134 36.947V16.2667Z" fill="#D84727"/>
</svg>
